<svg width="25" height="24" viewBox="0 0 25 24" fill="none" xmlns="http://www.w3.org/2000/svg">
<path d="M21.5 11.25C21.5 10.074 20.936 8.97 20 8.26575V8.25C20 6.82725 19.0048 5.63325 17.6735 5.3265C17.3668 3.996 16.172 3 14.75 3C13.8545 3 13.0498 3.3945 12.5 4.01775C11.9502 3.39375 11.1455 3 10.25 3C8.828 3 7.63325 3.99525 7.3265 5.3265C5.996 5.63325 5 6.82725 5 8.25V8.26575C4.064 8.97 3.5 10.0732 3.5 11.25C3.5 11.9145 3.67625 12.5527 4.0145 13.125C3.677 13.6973 3.5 14.3355 3.5 15C3.5 16.2645 4.1435 17.433 5.20025 18.1245C5.7395 19.833 7.30925 21 9.125 21C10.5185 21 11.753 20.3055 12.5 19.2435C13.247 20.3048 14.4815 21 15.875 21C17.6915 21 19.2612 19.833 19.7997 18.1245C20.8557 17.433 21.5 16.2645 21.5 15C21.5 14.3355 21.3237 13.6973 20.9855 13.125C21.323 12.5527 21.5 11.9145 21.5 11.25ZM9.125 19.5C7.8995 19.5 6.85025 18.6637 6.57425 17.466C6.5255 17.2552 6.38825 17.076 6.19775 16.974C5.459 16.578 5 15.822 5 15.0007C5 14.4945 5.1755 14.0092 5.50925 13.5968C5.73125 13.3215 5.73125 12.9292 5.50925 12.654C5.17625 12.2422 5 11.757 5 11.25C5 10.4475 5.44325 9.69975 6.15725 9.29775C6.43475 9.14175 6.58325 8.8275 6.52775 8.514C6.51275 8.42775 6.5 8.34075 6.5 8.25C6.5 7.42275 7.17275 6.75 8 6.75C8.41475 6.75 8.75 6.414 8.75 6C8.75 5.17275 9.42275 4.5 10.25 4.5C11.0773 4.5 11.75 5.17275 11.75 6V9H10.049C9.7895 8.5515 9.305 8.25 8.75 8.25C7.92125 8.25 7.25 8.92125 7.25 9.75C7.25 10.5788 7.92125 11.25 8.75 11.25C9.305 11.25 9.7895 10.9485 10.049 10.5H11.75V14.25H10.049C9.7895 13.8015 9.305 13.5 8.75 13.5C7.92125 13.5 7.25 14.1713 7.25 15C7.25 15.8287 7.92125 16.5 8.75 16.5C9.305 16.5 9.7895 16.1985 10.049 15.75H11.75V16.875C11.75 18.3225 10.5725 19.5 9.125 19.5ZM19.4907 13.596C19.8237 14.0078 20 14.493 20 15C20 15.822 19.5417 16.578 18.8022 16.9733C18.6117 17.0753 18.4745 17.2545 18.4257 17.4653C18.1497 18.663 17.0997 19.4993 15.875 19.4993C14.4275 19.4993 13.25 18.3218 13.25 16.8743V13.4992H14.75C15.9905 13.4992 17 12.4897 17 11.2492V11.0483C17.4485 10.7888 17.75 10.3042 17.75 9.74925C17.75 8.9205 17.0787 8.24925 16.25 8.24925C15.4213 8.24925 14.75 8.9205 14.75 9.74925C14.75 10.3042 15.0515 10.7888 15.5 11.0483V11.2492C15.5 11.6625 15.164 11.9992 14.75 11.9992H13.25V6C13.25 5.17275 13.9227 4.5 14.75 4.5C15.5773 4.5 16.25 5.17275 16.25 6C16.25 6.414 16.5852 6.75 17 6.75C17.8273 6.75 18.5 7.42275 18.5 8.25C18.5 8.34075 18.4865 8.42775 18.4722 8.514C18.4167 8.8275 18.5653 9.14175 18.8428 9.29775C19.5568 9.699 20 10.4475 20 11.25C20 11.7563 19.8245 12.2415 19.4907 12.654C19.2687 12.9292 19.2687 13.3208 19.4907 13.596Z" fill="#FAFAFA"/>
</svg>
