<svg width="25" height="24" viewBox="0 0 25 24" fill="none" xmlns="http://www.w3.org/2000/svg">
<path d="M14.8182 15C19.7458 14.973 21.5 12.363 21.5 10.125C21.4995 9.52506 21.2936 8.94336 20.9164 8.47679C20.5392 8.01022 20.0135 7.68694 19.427 7.56077C19.529 7.27052 19.6175 7.00427 19.6768 6.80252C19.8077 6.36373 19.8334 5.90027 19.7518 5.44969C19.6703 4.9991 19.4837 4.57407 19.2073 4.20902C18.9286 3.83244 18.5651 3.52675 18.1464 3.31672C17.7276 3.10668 17.2652 2.99819 16.7968 3.00002H8.20325C7.73476 2.99819 7.27242 3.10668 6.85365 3.31672C6.43488 3.52675 6.07144 3.83244 5.79275 4.20902C5.51631 4.57407 5.32974 4.9991 5.24817 5.44969C5.1666 5.90027 5.19232 6.36373 5.32325 6.80252C5.3825 7.00427 5.47325 7.27052 5.573 7.56077C4.98645 7.68694 4.46082 8.01022 4.08363 8.47679C3.70645 8.94336 3.50047 9.52506 3.5 10.125C3.5 12.363 5.25425 14.973 10.1818 15C10.2256 15.2277 10.2484 15.4589 10.25 15.6908V18C10.2629 18.2003 10.2329 18.4011 10.1621 18.5889C10.0913 18.7768 9.98122 18.9474 9.83927 19.0893C9.69733 19.2312 9.52676 19.3413 9.33893 19.4121C9.1511 19.4829 8.95033 19.5129 8.75 19.5H8C7.80109 19.5 7.61032 19.579 7.46967 19.7197C7.32902 19.8603 7.25 20.0511 7.25 20.25C7.25 20.4489 7.32902 20.6397 7.46967 20.7804C7.61032 20.921 7.80109 21 8 21H17C17.1989 21 17.3897 20.921 17.5303 20.7804C17.671 20.6397 17.75 20.4489 17.75 20.25C17.75 20.0511 17.671 19.8603 17.5303 19.7197C17.3897 19.579 17.1989 19.5 17 19.5H16.256C16.0552 19.5136 15.8539 19.4841 15.6655 19.4136C15.477 19.3431 15.3058 19.2331 15.1632 19.0911C15.0207 18.9491 14.9101 18.7784 14.8388 18.5902C14.7675 18.402 14.7373 18.2008 14.75 18V15.69C14.7516 15.4584 14.7745 15.2275 14.8182 15ZM18.875 9.00002C19.1734 9.00002 19.4595 9.11855 19.6705 9.32953C19.8815 9.54051 20 9.82665 20 10.125C20 11.6505 18.7933 13.275 15.473 13.4775C15.6391 13.2509 15.8308 13.0442 16.0445 12.8618C17.24 11.7848 18.1928 10.4658 18.8397 8.99252C18.8517 8.99327 18.8623 9.00002 18.875 9.00002ZM5 10.125C5 9.82665 5.11853 9.54051 5.3295 9.32953C5.54048 9.11855 5.82663 9.00002 6.125 9.00002C6.13775 9.00002 6.14825 8.99327 6.16025 8.99252C6.80717 10.4658 7.75999 11.7848 8.9555 12.8618C9.16916 13.0442 9.36094 13.2509 9.527 13.4775C6.20675 13.275 5 11.6505 5 10.125ZM11.3847 19.5C11.6327 19.0395 11.7585 18.523 11.75 18V15.6908C11.7526 14.9362 11.5909 14.19 11.276 13.5042C10.9611 12.8184 10.5007 12.2094 9.92675 11.7195C8.40165 10.2619 7.30673 8.41303 6.76175 6.37502C6.69771 6.1599 6.68539 5.9327 6.72579 5.71192C6.76619 5.49114 6.85818 5.28302 6.99425 5.10452C7.13416 4.91592 7.31652 4.76291 7.52656 4.65789C7.7366 4.55287 7.96842 4.49878 8.20325 4.50002H16.7968C17.0318 4.49913 17.2638 4.55367 17.4739 4.65923C17.6839 4.76478 17.8662 4.91836 18.0057 5.10752C18.1418 5.28602 18.2338 5.49414 18.2742 5.71492C18.3146 5.9357 18.3023 6.1629 18.2382 6.37802C17.6928 8.41496 16.5979 10.2628 15.0732 11.7195C14.4993 12.2093 14.0389 12.8182 13.724 13.5038C13.4092 14.1895 13.2474 14.9355 13.25 15.69V18C13.2415 18.523 13.3673 19.0395 13.6153 19.5H11.3847Z" fill="#FAFAFA"/>
</svg>
