<svg width="20" height="21" viewBox="0 0 20 21" fill="none" xmlns="http://www.w3.org/2000/svg">
<g clip-path="url(#clip0_3550_576)">
<path d="M14.9722 0.5H5.01188C2.25217 0.5 0 2.75396 0 5.51586V15.4999C0 18.246 2.25217 20.4999 5.01188 20.4999H14.9881C17.7478 20.4999 19.9999 18.246 19.9999 15.4841V5.51586C19.9841 2.75396 17.7319 0.5 14.9722 0.5ZM6.66136 16.6904H3.80649V8.43648H6.66136V16.6904ZM5.21806 7.16664C4.40918 7.16664 3.75891 6.51585 3.75891 5.70633C3.75891 4.89681 4.40918 4.24602 5.21806 4.24602C6.02694 4.24602 6.67722 4.89681 6.67722 5.70633C6.66136 6.51585 6.01108 7.16664 5.21806 7.16664ZM16.1934 16.6904H16.1776H13.7985V12.6904C13.7985 11.7222 13.6716 10.4841 12.3552 10.4841C11.0071 10.4841 10.7851 11.5317 10.7851 12.6269V16.6904H8.406V8.43648H10.6265V9.54759H10.6899C11.0388 8.91267 11.8477 8.42061 13.1165 8.42061C15.7335 8.42061 16.1934 9.92854 16.1934 12.1666V16.6904Z" fill="white"/>
</g>
<defs>
<clipPath id="clip0_3550_576">
<rect width="20" height="20" fill="white" transform="translate(0 0.5)"/>
</clipPath>
</defs>
</svg>
