<svg width="48" height="48" viewBox="0 0 48 48" fill="none" xmlns="http://www.w3.org/2000/svg">
<g clip-path="url(#clip0_3519_1227)">
<path d="M5.53725 31.9522C2.4791 31.9522 -3.64678e-08 29.4629 0 26.3924L5.76771e-08 21.5359C9.41451e-08 18.4653 2.47912 15.9761 5.53725 15.9761H10.3739C13.4321 15.9761 15.9112 13.4869 15.9112 10.4163V5.55985C15.9112 2.48922 18.3903 -3.66153e-08 21.4484 0L26.2851 5.79132e-08C29.3434 9.45303e-08 31.8224 2.48924 31.8224 5.55985V24.5391C31.8224 28.6332 28.5168 31.9522 24.4394 31.9522H5.53725Z" fill="url(#paint0_linear_3519_1227)"/>
<path d="M42.2675 16.0477C45.3258 16.0477 47.8048 18.537 47.8048 21.6076V26.4641C47.8048 29.5346 45.3258 32.0239 42.2675 32.0239H37.4308C34.3727 32.0239 31.8937 34.5131 31.8937 37.5838V42.4401C31.8937 45.5108 29.4145 48 26.3564 48H21.5197C18.4614 48 15.9824 45.5108 15.9824 42.4401V23.4608C15.9824 19.3668 19.288 16.0477 23.3654 16.0477H42.2675Z" fill="url(#paint1_linear_3519_1227)"/>
</g>
<defs>
<linearGradient id="paint0_linear_3519_1227" x1="35.3291" y1="43.1021" x2="10.8419" y2="2.45216" gradientUnits="userSpaceOnUse">
<stop stop-color="#0340E2"/>
<stop offset="1" stop-color="#71C9FF"/>
</linearGradient>
<linearGradient id="paint1_linear_3519_1227" x1="44.4513" y1="38.9015" x2="10.8354" y2="16.1475" gradientUnits="userSpaceOnUse">
<stop stop-color="#B69BFF"/>
<stop offset="1" stop-color="#5400E6"/>
</linearGradient>
<clipPath id="clip0_3519_1227">
<rect width="48" height="48" fill="white"/>
</clipPath>
</defs>
</svg>
