<svg width="25" height="24" viewBox="0 0 25 24" fill="none" xmlns="http://www.w3.org/2000/svg">
<path d="M20.375 5.982H18.0605C17.9122 5.98203 17.7672 6.02604 17.6439 6.10845C17.5206 6.19086 17.4245 6.30798 17.3677 6.44501C17.311 6.58203 17.2961 6.73281 17.3251 6.87827C17.354 7.02374 17.4254 7.15736 17.5303 7.26225L18.3447 8.07675L15.6553 10.7655C15.5124 10.9021 15.3223 10.9783 15.1246 10.9783C14.927 10.9783 14.7369 10.9021 14.594 10.7655L14.4665 10.6373C14.038 10.2278 13.4681 9.99932 12.8754 9.99932C12.2827 9.99932 11.7128 10.2278 11.2842 10.6373L7.45925 14.4623C7.31832 14.6036 7.23931 14.7951 7.23959 14.9947C7.23987 15.1943 7.31942 15.3856 7.46075 15.5265C7.60208 15.6674 7.7936 15.7464 7.99319 15.7462C8.19277 15.7459 8.38407 15.6663 8.525 15.525L12.35 11.7C12.4928 11.5633 12.6829 11.4869 12.8806 11.4869C13.0783 11.4869 13.2684 11.5633 13.4113 11.7L13.5387 11.8283C13.9675 12.2374 14.5373 12.4656 15.1299 12.4656C15.7225 12.4656 16.2923 12.2374 16.721 11.8283L19.4105 9.13875L20.225 9.95325C20.3302 10.0564 20.4635 10.1263 20.6083 10.1541C20.753 10.182 20.9027 10.1666 21.0387 10.1099C21.1747 10.0531 21.291 9.9576 21.373 9.83517C21.4551 9.71275 21.4992 9.56887 21.5 9.4215V7.107C21.5 6.80863 21.3815 6.52248 21.1705 6.3115C20.9595 6.10053 20.6734 5.982 20.375 5.982Z" fill="#FAFAFA"/>
<path d="M20.75 19.482H7.25C6.65326 19.482 6.08097 19.2449 5.65901 18.823C5.23705 18.401 5 17.8287 5 17.232V3.75C5 3.55109 4.92098 3.36032 4.78033 3.21967C4.63968 3.07902 4.44891 3 4.25 3C4.05109 3 3.86032 3.07902 3.71967 3.21967C3.57902 3.36032 3.5 3.55109 3.5 3.75V17.232C3.50119 18.2262 3.89666 19.1793 4.59966 19.8823C5.30267 20.5853 6.2558 20.9808 7.25 20.982H20.75C20.9489 20.982 21.1397 20.903 21.2803 20.7623C21.421 20.6217 21.5 20.4309 21.5 20.232C21.5 20.0331 21.421 19.8423 21.2803 19.7017C21.1397 19.561 20.9489 19.482 20.75 19.482Z" fill="#FAFAFA"/>
</svg>
