<svg width="25" height="24" viewBox="0 0 25 24" fill="none" xmlns="http://www.w3.org/2000/svg">
<path d="M10.9938 4.50625C10.9938 3.67405 11.6678 3 12.5 3C13.3322 3 14.0062 3.67405 14.0062 4.50625C14.0062 5.33845 13.3322 6.0125 12.5 6.0125C11.6678 6.0125 10.9938 5.33845 10.9938 4.50625ZM14.0062 15.8031C14.0062 14.9709 13.3322 14.2969 12.5 14.2969C11.6678 14.2969 10.9938 14.9709 10.9938 15.8031C10.9938 16.6353 11.6678 17.3094 12.5 17.3094C13.3322 17.3094 14.0062 16.6353 14.0062 15.8031ZM18.9016 9.025C18.0694 9.025 17.3953 9.69904 17.3953 10.5312C17.3953 11.3634 18.0694 12.0375 18.9016 12.0375C19.7338 12.0375 20.4078 11.3634 20.4078 10.5312C20.4078 9.69904 19.7338 9.025 18.9016 9.025ZM7.60469 10.5312C7.60469 9.69904 6.93064 9.025 6.09844 9.025C5.26624 9.025 4.59219 9.69904 4.59219 10.5312C4.59219 11.3634 5.26624 12.0375 6.09844 12.0375C6.93064 12.0375 7.60469 11.3634 7.60469 10.5312ZM6.09844 14.2969C6.63316 14.2969 7.09934 14.6764 7.20553 15.1999C7.27783 15.5568 7.59189 15.8031 7.94284 15.8031C7.99255 15.8031 8.04301 15.7978 8.09347 15.7873C8.50091 15.7052 8.7645 15.3068 8.68166 14.8994C8.43313 13.677 7.34712 12.7899 6.09844 12.7899C4.84976 12.7899 3.76375 13.6778 3.51522 14.9001C3.43238 15.3076 3.69597 15.7052 4.10341 15.7881C4.51161 15.8694 4.9085 15.6081 4.99135 15.2006C5.09754 14.6772 5.56297 14.2969 6.09844 14.2969ZM12.5 6.76562C11.2521 6.76562 10.1653 7.6528 9.91678 8.87512C9.83394 9.28257 10.0975 9.68021 10.505 9.76306C10.9132 9.84515 11.3101 9.58306 11.3929 9.17562C11.4991 8.6522 11.9645 8.27263 12.5 8.27263C13.0355 8.27263 13.5009 8.6522 13.6071 9.17562C13.6794 9.5326 13.9934 9.77887 14.3444 9.77887C14.3941 9.77887 14.4446 9.7736 14.495 9.76306C14.9025 9.68097 15.1661 9.28257 15.0832 8.87512C14.8347 7.6528 13.7487 6.76562 12.5 6.76562ZM12.5 18.0625C11.2521 18.0625 10.1653 18.9497 9.91678 20.172C9.83394 20.5794 10.0975 20.9771 10.505 21.0599C10.9132 21.1443 11.3101 20.8792 11.3929 20.4725C11.4991 19.9491 11.9645 19.5695 12.5 19.5695C13.0355 19.5695 13.5009 19.9491 13.6071 20.4725C13.6794 20.8295 13.9934 21.0757 14.3444 21.0757C14.3941 21.0757 14.4446 21.0705 14.495 21.0599C14.9025 20.9778 15.1661 20.5794 15.0832 20.172C14.8347 18.9497 13.7487 18.0625 12.5 18.0625ZM21.4848 14.5236C21.2362 13.3012 20.1502 12.4141 18.9016 12.4141C17.6529 12.4141 16.5669 13.3012 16.3183 14.5236C16.2355 14.931 16.4991 15.3286 16.9065 15.4115C17.3147 15.4928 17.7116 15.2315 17.7945 14.8241C17.9007 14.3006 18.3661 13.9211 18.9016 13.9211C19.437 13.9211 19.9025 14.3006 20.0086 14.8241C20.0809 15.181 20.395 15.4273 20.746 15.4273C20.7957 15.4273 20.8461 15.422 20.8966 15.4115C21.304 15.3294 21.5676 14.931 21.4848 14.5236ZM8.73438 4.50625H7.98125C6.31986 4.50625 4.96875 5.85735 4.96875 7.51875C4.96875 7.93523 5.30615 8.27187 5.72188 8.27187C6.1376 8.27187 6.475 7.93523 6.475 7.51875C6.475 6.68805 7.15056 6.0125 7.98125 6.0125H8.73438C9.1501 6.0125 9.4875 5.67585 9.4875 5.25937C9.4875 4.8429 9.1501 4.50625 8.73438 4.50625ZM17.0187 6.0125C17.8494 6.0125 18.525 6.68805 18.525 7.51875C18.525 7.93523 18.8624 8.27187 19.2781 8.27187C19.6938 8.27187 20.0312 7.93523 20.0312 7.51875C20.0312 5.85735 18.6801 4.50625 17.0187 4.50625H16.2656C15.8499 4.50625 15.5125 4.8429 15.5125 5.25937C15.5125 5.67585 15.8499 6.0125 16.2656 6.0125H17.0187ZM19.2781 15.8031C18.8624 15.8031 18.525 16.1398 18.525 16.5562C18.525 17.3869 17.8494 18.0625 17.0187 18.0625C16.603 18.0625 16.2656 18.3991 16.2656 18.8156C16.2656 19.2321 16.603 19.5687 17.0187 19.5687C18.6801 19.5687 20.0312 18.2176 20.0312 16.5562C20.0312 16.1398 19.6938 15.8031 19.2781 15.8031ZM7.98125 18.0625C7.15056 18.0625 6.475 17.3869 6.475 16.5562C6.475 16.1398 6.1376 15.8031 5.72188 15.8031C5.30615 15.8031 4.96875 16.1398 4.96875 16.5562C4.96875 18.2176 6.31986 19.5687 7.98125 19.5687C8.39698 19.5687 8.73438 19.2321 8.73438 18.8156C8.73438 18.3991 8.39698 18.0625 7.98125 18.0625Z" fill="#FAFAFA"/>
</svg>
